# xmcd
#
# Track frame offsets:
#	150
#	15836
#	30950
#	46100
#	60222
#	74755
#	89141
#	104898
#	120150
#	134186
#
# Disc length: 1977 seconds
#
# Revision: 0
# Processed by: cddbd v1.5.2PL0 Copyright (c) Steve Scherf et al.
# Submitted via: EasyCDDAExtractor 16.0.6.1
#
DISCID=8307b70a
DTITLE=Συλλογικός δίσκος - Ιστορία ρεμπέτικου και λαϊκού 04-3
DYEAR=2007
DGENRE=Ποικίλη
TTITLE0=Παγιουμτζής Στράτος - Είν' ευτυχής ο άνθρωπος [Παν. Τούντας]
TTITLE1=Γκόγκος Δημήτρης-Σαγιάς Γεράσιμος - Το μαναβάκι [Παν. Τούντας]
TTITLE2=Χατζηχρήστος Απόστολος-Κωνσταντινίδης Γρ. - Βαγγελιώ, δεν είσαι εν τάξ
TTITLE2=ει [Απ. Χατζηχρήστος]
TTITLE3=Περπινιάδης Στελλάκης - Καλλιοπάκι [Δημ. Σέμσης]
TTITLE4=Χατζηχρήστος Απόστολος - Γκρινιάρικο [Απ. Χατζηχρήστος-Γ. Φωτίδας]
TTITLE5=Κάβουρας Γιώργος - Τα τσαχπίνικά σου μάτια [Κ. Σκαρβέλης]
TTITLE6=Χατζηχρήστος Απόστολος-Παπαϊωάννου Γ. - Εσούρωσα κι απόψε [Σπ. Περιστέ
TTITLE6=ρης-Μίνως Μάτσας]
TTITLE7=Χατζηχρήστος Απόστολος-Κωνσταντινίδης Γρ. - Νυχτοπούλι [Απ. Χατζηχρήστ
TTITLE7=ος]
TTITLE8=Παπαϊωάννου Γιάννης - Για μιά μικρή μελαχροινή [Γρ. Ασίκης]
TTITLE9=Κάβουρας Γιώργος-Περπινιάδης Στελλάκης - Όσο κι αν πονώ [Κ. Σκαρβέλης]
EXTD=
EXTT0=
EXTT1=
EXTT2=
EXTT3=
EXTT4=
EXTT5=
EXTT6=
EXTT7=
EXTT8=
EXTT9=
PLAYORDER=
